<?xml version="1.0" encoding="utf-8"?>
<!-- Generator: Adobe Illustrator 22.0.1, SVG Export Plug-In . SVG Version: 6.00 Build 0)  -->
<svg version="1.1" id="Layer_1" xmlns="http://www.w3.org/2000/svg" xmlns:xlink="http://www.w3.org/1999/xlink" x="0px" y="0px"
	 viewBox="0 0 44 28" style="enable-background:new 0 0 44 28;" xml:space="preserve">
<style type="text/css">
	.st0{fill:#FC5B32;}
	.st1{fill:#FFFFFF;}
</style>
<g>
	<path class="st0" d="M22,0C15.6,0,9.2,4.8,0,14c9.2,9.2,15.6,14,22,14s12.8-4.8,22-14C34.8,4.8,28.4,0,22,0z M23,12
		c0,0.6-0.4,1-1,1s-1-0.4-1-1c0,0,0,0,0,0c0.3,0,0.7,0,1,0S22.7,12,23,12C23,12,23,12,23,12z M21,13.5c0,0.8-0.7,1.5-1.5,1.5
		S18,14.3,18,13.5s0.7-1.5,1.5-1.5S21,12.7,21,13.5z M22,21c-4.4,0-8-3.6-8-8c0-0.8,0.1-1.5,0.3-2.2c1,0.3,2,0.6,2.9,0.8
		C17.1,12,17,12.5,17,13c0,2.8,2.2,5,5,5s5-2.2,5-5c0-0.5-0.1-1-0.2-1.5c1-0.2,1.9-0.4,2.9-0.8c0.2,0.7,0.3,1.5,0.3,2.2
		C30,17.4,26.4,21,22,21z"/>
	<path class="st1" d="M26.8,11.5c0.1,0.5,0.2,1,0.2,1.5c0,2.8-2.2,5-5,5s-5-2.2-5-5c0-0.5,0.1-1,0.2-1.5c-1-0.2-1.9-0.4-2.9-0.8
		C14.1,11.5,14,12.2,14,13c0,4.4,3.6,8,8,8s8-3.6,8-8c0-0.8-0.1-1.5-0.3-2.2C28.7,11.1,27.7,11.3,26.8,11.5z"/>
	<path class="st1" d="M21,12C21,12,21,12,21,12c0,0.6,0.4,1,1,1s1-0.4,1-1c0,0,0,0,0,0c-0.3,0-0.7,0-1,0S21.3,12,21,12z"/>
	<circle class="st1" cx="19.5" cy="13.5" r="1.5"/>
</g>
</svg>
