<svg id="Layer_1" data-name="Layer 1" xmlns="http://www.w3.org/2000/svg" viewBox="0 0 44 28"><defs><style>.cls-1{fill:#fc5b32;}.cls-2{fill:#fff;}</style></defs><title>android-Artboard 1</title><path class="cls-1" d="M22,0C15.6,0,9.2,4.8,0,14c9.2,9.2,15.6,14,22,14s12.8-4.8,22-14C34.8,4.8,28.4,0,22,0Zm1,12a1,1,0,0,1-2,0h2Zm-2,1.5A1.5,1.5,0,1,1,19.5,12,1.54,1.54,0,0,1,21,13.5ZM22,21a8,8,0,0,1-8-8,7.8,7.8,0,0,1,.3-2.2c1,.3,2,.6,2.9.8A5.9,5.9,0,0,0,17,13a5,5,0,0,0,10,0,7.72,7.72,0,0,0-.2-1.5,15.68,15.68,0,0,0,2.9-.8,8.33,8.33,0,0,1,.3,2.2A8,8,0,0,1,22,21Z"/><path class="cls-2" d="M26.8,11.5A7.72,7.72,0,0,1,27,13a5,5,0,0,1-10,0,7.72,7.72,0,0,1,.2-1.5,15.68,15.68,0,0,1-2.9-.8A9.08,9.08,0,0,0,14,13a8,8,0,0,0,16,0,7.8,7.8,0,0,0-.3-2.2C28.7,11.1,27.7,11.3,26.8,11.5Z"/><path class="cls-2" d="M21,12h0a1,1,0,0,0,2,0H21Z"/><circle class="cls-2" cx="19.5" cy="13.5" r="1.5"/></svg>