<?xml version="1.0" encoding="utf-8"?>
<!-- Generator: Adobe Illustrator 17.0.0, SVG Export Plug-In . SVG Version: 6.00 Build 0)  -->
<!DOCTYPE svg PUBLIC "-//W3C//DTD SVG 1.1//EN" "http://www.w3.org/Graphics/SVG/1.1/DTD/svg11.dtd">
<svg version="1.1" id="Layer_1" xmlns="http://www.w3.org/2000/svg" xmlns:xlink="http://www.w3.org/1999/xlink" x="0px" y="0px"
	 width="16px" height="16px" viewBox="0 0 16 16" enable-background="new 0 0 16 16" xml:space="preserve">
<g>
	<path fill="#FFFFFF" d="M8,2C4.691,2,2,4.691,2,8s2.691,6,6,6s6-2.691,6-6S11.309,2,8,2z M8,3.5c1.032,0,1.981,0.354,2.74,0.939
		C10.2,5.021,9.56,5.497,8.848,5.857C8.302,5.01,7.594,4.269,6.778,3.673C7.168,3.562,7.576,3.5,8,3.5z M5.414,4.322
		c0.874,0.506,1.631,1.199,2.208,2.025c-1.245,0.35-2.572,0.346-3.8-0.011C4.148,5.519,4.706,4.822,5.414,4.322z M4.52,10.849
		C3.883,10.072,3.5,9.08,3.5,8c0-0.144,0.009-0.285,0.021-0.425C4.241,7.78,4.986,7.887,5.75,7.887c0.858,0,1.699-0.14,2.51-0.403
		C8.379,7.755,8.481,8.03,8.565,8.313C6.963,8.686,5.547,9.575,4.52,10.849z M8.484,12.473C8.326,12.49,8.164,12.5,8,12.5
		c-0.943,0-1.818-0.293-2.542-0.79c0.847-1.081,2.03-1.835,3.37-2.152c0.021,0.224,0.035,0.456,0.035,0.692
		C8.863,11.021,8.73,11.765,8.484,12.473z M9.929,12.06c0.134-0.588,0.208-1.192,0.208-1.81c0-0.291-0.017-0.577-0.045-0.852
		c0.051-0.002,0.108-0.011,0.158-0.011c0.664,0,1.305,0.105,1.916,0.309C11.741,10.735,10.938,11.579,9.929,12.06z M10.25,8.114
		c-0.123,0-0.263,0.018-0.393,0.025c-0.104-0.393-0.24-0.781-0.407-1.16c0.816-0.417,1.554-0.961,2.182-1.625
		C12.175,6.098,12.5,7.011,12.5,8c0,0.155-0.008,0.309-0.023,0.461C11.764,8.233,11.02,8.114,10.25,8.114z"/>
</g>
</svg>
