<?xml version="1.0" encoding="utf-8"?>
<!-- Generator: Adobe Illustrator 17.0.0, SVG Export Plug-In . SVG Version: 6.00 Build 0)  -->
<!DOCTYPE svg PUBLIC "-//W3C//DTD SVG 1.1//EN" "http://www.w3.org/Graphics/SVG/1.1/DTD/svg11.dtd">
<svg version="1.1" id="Layer_1" xmlns="http://www.w3.org/2000/svg" xmlns:xlink="http://www.w3.org/1999/xlink" x="0px" y="0px"
	 width="16px" height="16px" viewBox="0 0 16 16" enable-background="new 0 0 16 16" xml:space="preserve">
<g>
	<path fill="#FFFFFF" d="M13.884,6.762c-0.132-0.365-0.321-0.683-0.564-0.954s-0.542-0.484-0.896-0.639
		c-0.354-0.154-0.753-0.232-1.195-0.232c-0.355,0-0.684,0.056-0.988,0.166C9.936,5.214,9.654,5.36,9.394,5.543
		c-0.26,0.183-0.503,0.396-0.73,0.639C8.437,6.426,8.218,6.675,8.008,6.929C7.787,6.664,7.563,6.412,7.336,6.174
		c-0.227-0.238-0.47-0.448-0.73-0.631C6.345,5.36,6.063,5.214,5.759,5.103C5.455,4.993,5.12,4.937,4.755,4.937
		c-0.443,0-0.841,0.081-1.195,0.241C3.205,5.339,2.907,5.554,2.663,5.825C2.42,6.097,2.234,6.418,2.108,6.788
		c-0.127,0.37-0.191,0.771-0.191,1.203c0,0.432,0.066,0.836,0.199,1.212c0.132,0.377,0.326,0.7,0.581,0.972
		c0.255,0.271,0.559,0.487,0.913,0.647c0.354,0.161,0.758,0.241,1.212,0.241c0.366,0,0.695-0.053,0.988-0.158
		c0.293-0.105,0.564-0.243,0.813-0.415c0.249-0.172,0.484-0.371,0.705-0.598c0.221-0.226,0.448-0.462,0.68-0.705
		C8.218,9.43,8.44,9.666,8.672,9.892c0.233,0.227,0.479,0.427,0.739,0.598c0.26,0.172,0.539,0.31,0.838,0.415
		c0.299,0.106,0.62,0.158,0.963,0.158c0.442,0,0.843-0.08,1.203-0.241c0.36-0.16,0.661-0.382,0.905-0.664
		c0.243-0.283,0.431-0.612,0.564-0.988c0.133-0.376,0.2-0.78,0.199-1.213C14.083,7.526,14.017,7.127,13.884,6.762z M6.566,8.514
		C6.4,8.675,6.223,8.819,6.035,8.946C5.846,9.073,5.647,9.178,5.437,9.261C5.226,9.344,5.016,9.386,4.806,9.386
		c-0.41,0-0.731-0.127-0.963-0.382C3.61,8.75,3.494,8.423,3.494,8.025c0-0.366,0.113-0.695,0.34-0.988
		c0.226-0.293,0.533-0.44,0.921-0.44c0.21,0,0.421,0.047,0.631,0.141c0.21,0.095,0.412,0.214,0.605,0.357
		C6.185,7.239,6.37,7.397,6.548,7.568C6.724,7.74,6.88,7.898,7.012,8.041C6.88,8.197,6.73,8.354,6.566,8.514z M12.191,8.988
		c-0.221,0.265-0.537,0.398-0.946,0.398c-0.233,0-0.451-0.038-0.656-0.116C10.384,9.193,10.188,9.09,10,8.963
		S9.635,8.692,9.469,8.531s-0.321-0.324-0.465-0.49C9.137,7.898,9.286,7.74,9.452,7.568c0.166-0.171,0.341-0.329,0.523-0.473
		c0.183-0.144,0.376-0.263,0.581-0.357c0.205-0.094,0.418-0.141,0.639-0.141c0.41,0,0.733,0.139,0.971,0.416
		c0.238,0.277,0.357,0.609,0.357,0.996C12.523,8.396,12.412,8.722,12.191,8.988z"/>
</g>
</svg>
