<?xml version="1.0" encoding="utf-8"?>
<!-- Generator: Adobe Illustrator 17.0.0, SVG Export Plug-In . SVG Version: 6.00 Build 0)  -->
<!DOCTYPE svg PUBLIC "-//W3C//DTD SVG 1.1//EN" "http://www.w3.org/Graphics/SVG/1.1/DTD/svg11.dtd">
<svg version="1.1" id="Layer_1" xmlns="http://www.w3.org/2000/svg" xmlns:xlink="http://www.w3.org/1999/xlink" x="0px" y="0px"
	 width="16px" height="16px" viewBox="0 0 16 16" enable-background="new 0 0 16 16" xml:space="preserve">
<g>
	<path fill="#FFFFFF" d="M3.264,6.64c0-0.163,0.103-0.213,0.231-0.11l1.483,1.186c0.128,0.103,0.128,0.268,0,0.369L3.495,9.272
		C3.367,9.374,3.264,9.324,3.264,9.161V6.64z M12.721,10.955c0,0.26-0.266,0.591-0.591,0.591H3.855
		c-0.325,0-0.591-0.331-0.591-0.591v-0.16l2.553-2.038c0.128-0.102,0.335-0.102,0.462,0l1.483,1.186
		c0.128,0.103,0.334,0.103,0.462,0l1.483-1.186c0.128-0.103,0.335-0.103,0.462-0.001l2.553,2.038L12.721,10.955L12.721,10.955z
		 M12.721,9.161c0,0.163-0.103,0.213-0.23,0.111l-1.483-1.186c-0.128-0.103-0.128-0.268,0-0.369L12.49,6.53
		c0.128-0.102,0.231-0.052,0.231,0.111V9.161L12.721,9.161z M8.2,8.606C8.072,8.708,7.865,8.707,7.737,8.605l-4.473-3.56
		c0-0.26,0.266-0.591,0.591-0.591h8.275c0.325,0,0.591,0.331,0.591,0.591L8.2,8.606z"/>
</g>
</svg>
