<?xml version="1.0" encoding="utf-8"?>
<!-- Generator: Adobe Illustrator 17.0.0, SVG Export Plug-In . SVG Version: 6.00 Build 0)  -->
<!DOCTYPE svg PUBLIC "-//W3C//DTD SVG 1.1//EN" "http://www.w3.org/Graphics/SVG/1.1/DTD/svg11.dtd">
<svg version="1.1" id="Layer_1" xmlns="http://www.w3.org/2000/svg" xmlns:xlink="http://www.w3.org/1999/xlink" x="0px" y="0px"
	 width="16px" height="16px" viewBox="0 0 16 16" enable-background="new 0 0 16 16" xml:space="preserve">
<g>
	<path fill="#FFFFFF" d="M11.992,7.311C12.021,7.536,12.02,7.766,12.02,8c0,2.9-2.242,5.25-5.012,5.25C4.237,13.25,2,10.9,2,8
		s2.263-5.25,5.033-5.25c0.317,0,0.96,0.041,0.96,0.1v2.974C7.243,5.685,6.805,5.735,6.21,6.032
		C4.983,6.645,4.334,8.023,4.794,9.109c0.46,1.087,1.846,1.471,3.073,0.859C8.713,9.546,9.494,8.53,9.494,7.257V3.546
		c0.75,0.62,2.644,1.501,4.299,1.588C14.434,5.167,13.522,6.843,11.992,7.311z"/>
</g>
</svg>
